ply
format ascii 1.0
element vertex 386
property float x
property float y
property float z
element face 768
property list uchar int vertex_indices
end_header
6.38176 42.4419 -63.3775
8.01928 36.9428 -63.0921
0.266813 36.0485 -54.8466
31.6478 35.6097 -16.5415
-18.1964 44.2123 39.4778
-20.2898 -7.78706 21.011
-0.382923 18.0343 30.5144
-0.782543 50.1653 -50.226
-35.9907 48.5761 10.2238
8.42778 44.4351 -57.9295
14.2361 52.3263 24.8813
57.7379 46.6663 29.6177
60.4684 57.3084 26.048
21.056 34.0766 -15.4815
0.967646 43.9934 -48.4195
29.5341 41.9584 -11.4833
-7.13754 37.0387 -57.5786
25.1279 43.5386 -17.2984
61.0216 58.8001 29.1568
13.5772 41.6298 -16.9817
-6.48081 -38.8156 24.6435
15.2315 68.0329 -23.6277
1.06028 40.9986 38.9745
25.2122 36.9946 -6.65231
9.46791 56.9307 -17.7517
26.2533 53.1125 -4.25845
-11.1882 26.5941 38.8767
-5.65894 42.6427 -38.2968
18.4053 56.9133 -16.5528
-0.0799077 48.1847 -59.1304
32.8653 70.5883 1.18632
29.5449 63.0054 -2.94665
22.2715 59.7915 2.95856
-55.5114 -59.1221 20.5667
10.3773 -41.7339 28.2025
-2.11431 -50.2793 17.2531
-16.0646 48.1838 -49.5142
29.3692 69.7993 2.78154
20.6485 64.753 -3.24192
-2.55388 -25.5583 37.2107
11.5247 68.9679 -21.358
55.5863 48.2713 38.7189
11.3237 66.814 4.47025
-48.0089 -41.195 16.0997
50.8006 57.6432 28.194
-28.2757 35.8869 32.4585
44.6297 34.6884 35.3521
-45.2013 -16.1135 42.5254
-0.338239 32.4149 -9.85974
-30.254 55.0212 27.2517
-9.17651 -14.1946 26.7098
-34.3864 -15.1941 38.9103
12.1448 65.9271 -12.1378
-11.2583 31.8527 -37.5712
-12.0926 70.7751 20.78
-12.8293 45.8146 -32.1352
-40.9967 -8.0828 12.8753
-27.0461 29.6308 -9.12421
46.0328 55.8983 36.0671
-1.22065 69.0471 -1.63442
9.23108 35.7168 -6.92685
-31.8187 -1.54791 23.139
-43.441 -6.28611 2.30023
5.45591 24.7206 1.69297
36.4183 35.3872 30.9839
-10.5187 5.03961 38.0349
16.4675 43.8211 8.6371
-6.34628 43.2959 -17.8068
15.4436 -54.1454 13.2039
-48.859 -67.313 6.42083
-12.2447 31.3731 -17.6975
-24.8478 65.5382 8.44911
-22.6951 30.7991 -28.5711
-35.9299 28.8561 15.3563
-10.4179 58.9832 35.9874
1.00255 9.63086 12.33
-45.6339 -55.2441 17.8095
-50.6596 -64.6638 -0.644368
-51.575 -35.0622 2.10992
-23.2699 36.4649 -38.662
41.4211 48.9381 45.303
29.9845 45.0989 30.6044
-20.2437 49.9623 -16.3489
-23.8034 46.9676 -29.1015
-4.718 -50.3488 31.8629
-38.9949 -34.815 -8.23975
7.60057 -6.5784 24.9747
-30.4029 38.3547 -20.5758
-11.5067 14.8323 -4.10316
37.9649 36.4537 43.5279
1.70687 -55.3721 9.77669
14.2838 -50.7853 14.6805
-15.472 -6.30776 3.74214
-56.9347 -55.3434 8.15345
-29.375 17.2106 30.0507
5.45053 -37.8113 37.2261
-45.3562 -14.8352 44.2027
15.26 -26.6426 28.0461
-27.8513 51.3858 -8.52569
-35.3919 8.78775 11.6657
-27.4887 -1.06161 32.9812
5.18285 -1.30927 37.4474
-29.0169 -18.9016 -8.88138
-29.9304 19.6202 4.13081
-28.2344 1.99223 -2.00399
26.9101 44.6731 41.6177
5.54617 -49.1074 11.6669
-35.5946 -43.7439 3.39627
6.96359 -36.6122 20.7829
-6.88958 -6.56679 13.8469
-18.0549 -8.79468 34.0243
12.8335 -49.3418 7.87298
-30.706 -30.4158 -2.04995
12.6296 -20.6419 36.7097
-35.3288 -35.3629 10.0667
-59.0976 -66.0751 3.71153
-33.3405 -10.8451 30.9085
4.46346 -24.3766 24.1512
-42.8206 -15.3253 45.1226
-31.0746 -18.8253 13.9712
-40.6622 -18.7254 -8.70499
22.302 33.6317 41.1378
-6.72236 57.7207 -12.0869
-43.6167 -25.2936 6.51565
-6.48295 -56.3429 22.9118
4.49064 -58.7166 22.3711
14.6479 28.976 25.5451
1.46688 66.2991 23.8337
-57.2925 -64.745 -0.876368
-46.9292 -54.9862 4.35346
-1.23828 -59.0545 17.9836
-47.8031 -16.23 47.1393
10.4311 40.9744 -63.0999
1.33205 35.1282 -60.2056
4.18823 37.9881 -63.5547
17.3059 64.0156 0.953486
6.58107 46.0571 -61.208
3.93077 48.9699 -56.6338
7.566 38.131 -59.7525
30.8952 39.6093 -16.3094
-43.6375 -14.1468 40.304
27.6583 36.1237 -18.1001
-26.1659 -8.55027 35.5135
30.8653 37.0935 -12.197
-9.59821 48.4055 40.2377
0.308366 43.0499 -61.6736
4.26881 41.9039 -54.0735
20.4964 38.6832 -17.6627
59.3901 60.5209 26.2867
-16.79 16.7045 36.9304
-16.2441 -9.93329 27.7216
6.61238 -16.5332 39.391
62.4151 55.2436 26.8159
-46.7142 -61.5868 9.986
4.51705 47.6408 -52.8107
-1.90647 -29.8087 28.2235
-6.69547 33.2706 -50.8039
6.49554 -50.0811 7.31023
-5.12512 39.182 -40.6011
16.1112 39.1695 42.3831
-2.55763 56.5856 34.8141
-3.26557 36.7407 -47.3925
6.7072 -47.7516 30.7665
27.6378 33.6024 -13.9912
-42.9745 -17.3643 44.0208
-6.62802 16.5974 36.3259
-38.8062 -15.2944 37.1778
23.9772 50.8198 -13.2633
-0.983177 46.6679 -45.1978
16.7735 47.0578 -17.943
17.8689 51.835 -17.9286
30.1267 71.3642 1.51764
-34.5144 18.1348 19.5226
-3.41207 -58.3837 26.6966
-3.35441 28.2082 36.776
-42.4755 -14.3169 42.2378
27.8043 43.8835 -6.93031
30.521 65.5241 -0.106284
26.1396 60.5904 -3.8918
29.6949 67.5602 -2.0178
58.1612 55.2248 26.688
27.8512 46.4002 -11.0247
-41.7494 -33.5904 11.4295
21.5682 58.1705 -8.25447
-8.20365 -49.9422 27.0958
16.2671 64.5968 -19.3411
-42.4697 -43.93 16.3983
-8.55988 45.3049 -57.05
-59.3641 -60.8176 12.5117
18.3082 34.2065 -9.65786
-22.6056 8.08516 34.134
16.9757 38.6064 -0.81202
14.8924 61.5188 -21.2232
13.3376 70.6706 -21.3935
-9.62386 37.1188 40.8004
14.5293 36.2019 -13.6303
-17.9339 -0.718436 35.1441
26.9591 58.5607 -1.99364
-14.9408 33.5543 -45.3659
-6.05607 46.7444 -39.3192
-32.685 8.79462 21.9402
-11.6739 60.4726 -8.42371
17.1872 -50.5577 11.682
-55.5048 -66.0555 10.8885
-28.2421 -12.3937 34.3247
-5.72291 50.7246 -54.5502
-3.92462 -55.3267 15.9423
23.2665 44.7578 0.153095
4.99198 60.5069 -13.7251
-29.9199 5.82454 28.9559
53.927 60.189 30.5227
0.914516 -51.2647 32.1292
-33.2218 40.111 26.0511
-32.2176 25.8817 4.18197
46.0598 36.3369 31.2595
11.962 67.5943 -23.2674
53.6792 41.4709 34.5386
-31.3767 11.3801 4.7003
56.5476 56.1044 34.5165
5.51524 47.3113 -17.6935
-15.5099 30.3423 -28.696
14.4471 66.4991 -3.77745
-6.32678 67.746 28.5187
-17.2178 40.4935 -49.9672
21.7447 52.5969 2.9597
-17.817 63.7255 29.6648
5.3246 40.1207 -13.9906
-27.2605 45.916 34.3219
42.3012 54.5594 31.2758
-10.0713 39.2573 -34.7441
10.516 65.7098 -17.7885
24.6901 66.0073 1.59915
-51.2296 -59.0096 3.59938
4.65918 28.655 31.904
12.2434 31.9305 12.1418
-7.06105 26.5915 -10.7438
10.1248 34.5887 1.37035
-23.3598 21.2791 -2.93516
17.2476 52.4107 12.6989
38.9003 46.4892 29.1826
-1.29154 23.6648 -4.85956
1.5826 -32.0436 21.9854
-36.7712 0.0808975 16.1682
11.5734 -35.3356 32.0846
-10.7139 39.582 -28.8199
7.20848 20.2698 12.3789
0.794861 37.7362 -11.4492
48.6846 52.5971 41.4518
-30.6165 -3.91853 28.1468
-31.7529 55.9146 2.7375
-20.4379 53.7331 36.2342
-7.09622 -48.9721 21.8934
-10.2417 49.4082 -44.887
12.0156 -47.6101 10.4289
-10.2195 -9.8801 37.9742
-19.8851 31.4867 -35.9392
-39.3897 -18.0313 11.806
5.15729 30.8986 -5.42449
-53.2164 -48.2965 5.15582
-37.6758 -45.3845 11.3801
-35.2998 -9.51994 17.5207
-6.00607 -39.6648 31.956
14.1676 -55.8475 17.5797
-35.0811 -9.30243 36.5738
-5.90407 36.6059 -15.068
-50.2054 -62.6943 17.231
-10.2783 35.0153 -24.1968
-1.80172 52.9339 -15.6764
45.8968 44.8621 44.5571
38.6482 32.7326 36.6432
-23.2961 27.0561 34.7565
2.41681 65.0732 -9.26015
-2.62943 -22.1402 29.434
34.1572 48.976 36.393
-1.33891 15.5512 2.20706
9.05702 -52.6887 16.4089
-41.6176 -1.28897 8.80945
26.8396 35.1147 28.6428
-18.3342 47.9493 -37.6398
28.9039 37.1121 43.9873
-1.38277 -39.3806 37.2658
-23.5231 66.5896 19.4065
-22.4512 44.3703 -40.1638
-48.6402 -33.1008 8.74465
-55.0744 -62.6375 0.236819
-28.3496 -6.40316 24.6354
12.9023 -28.1992 35.0892
-34.6282 19.2237 11.0368
15.0513 41.8901 20.6102
32.0404 33.4743 39.5802
15.506 60.1776 10.6604
-16.789 24.8779 -10.4848
37.9202 51.1007 42.5742
13.4542 46.2534 36.3994
49.2967 46.8223 28.8311
-36.5395 2.33584 3.49865
19.3775 41.684 27.361
-12.2972 50.6185 -14.4675
-6.44506 -1.09714 8.50236
5.13289 18.5761 21.867
12.2204 33.3899 36.7282
-35.5531 41.9242 5.52252
-25.4207 50.1094 -17.9444
-14.4475 46.6265 -21.0299
2.39956 -53.3832 16.7602
-20.9333 30.2637 -19.3026
-19.6207 53.6364 -11.7999
-7.83082 5.90146 3.0656
-56.3471 -66.7248 -2.01058
24.3666 30.9902 33.1234
7.52137 -46.5583 23.7598
2.28114 9.53393 27.0226
10.9765 -18.2099 25.3959
-32.7302 -29.0345 -8.61692
-35.9589 -24.3772 -11.2572
14.5055 -17.2168 30.3998
-36.5581 43.3554 18.2685
2.47462 -49.0102 19.7659
-21.6764 -10.8885 13.273
35.1347 43.3655 45.6805
-28.0803 32.3019 -19.7154
4.69943 69.2711 8.35731
-1.26143 -40.8665 20.072
8.38941 -58.0015 14.7088
-36.2594 -26.9866 10.6477
-47.363 -64.238 1.98191
1.0268 -0.697786 15.5532
8.48479 68.4306 -3.98321
-34.536 -37.1801 -3.93254
8.90876 63.503 18.2963
-12.7622 -9.80091 20.1279
-43.9371 -16.6038 -1.29685
46.2683 37.8661 39.923
6.03755 -28.5154 38.6614
-52.442 -67.939 1.16264
10.7953 -28.6106 23.0331
-23.1812 -7.39724 -3.4153
-29.9317 39.9004 -12.4229
61.1701 51.9754 32.2371
16.828 62.2647 -11.0362
-19.4386 35.7593 38.2907
-44.7155 -28.9984 -6.99048
-27.1343 34.3763 -29.554
-27.3281 40.4225 -29.204
-28.8377 46.0735 -19.3881
-1.34291 7.66119 36.4243
-13.7165 -6.86841 12.1344
12.8633 -34.6311 25.1027
-24.3106 -19.3442 -3.93806
-17.6074 3.509 -1.36201
-19.8479 48.108 -25.2115
-32.2474 -11.6031 -8.4986
5.12894 54.3082 30.4964
-35.5401 -11.6092 40.3015
-18.0981 63.9949 -1.78425
23.2777 47.48 32.9964
-53.3955 -42.6952 9.59467
-23.2607 12.7037 -0.801901
-40.1248 -45.6075 -0.981262
-46.5272 -26.1041 -1.19721
-32.8746 57.3366 15.4134
10.6046 -8.83228 34.654
0.471366 -51.2234 11.4255
-23.4205 -8.62197 28.1784
11.6056 -53.1345 8.64378
-42.2244 -52.6405 9.60589
-32.6993 27.2856 26.8101
5.59172 2.09076 25.416
-31.5877 36.174 -0.867451
-2.83163 71.246 14.2999
-32.6615 -37.0236 3.05396
-25.3036 -19.4488 4.91315
-2.89672 -8.78185 21.0324
-54.4502 -51.5002 17.7486
-46.7943 -41.6866 -1.46091
-10.4087 -16.5718 33.6291
-12.1952 71.2424 8.5406
-27.5992 -9.30878 19.9356
1.22138 -14.6835 25.063
-44.5132 -13.1117 7.17581
-59.7165 -63.3422 1.89126
-38.4135 -6.83701 -4.20371
-50.4335 -52.216 21.848
-31.9423 -28.8974 7.24472
-2.16278 -7.41348 40.0227
30.9515 69.3238 3.43259
3 130 125 173
3 131 47 164
3 132 1 134
3 133 16 134
3 134 16 145
3 135 38 221
3 136 0 145
3 137 29 205
3 138 1 132
3 139 3 141
3 140 47 131
3 141 17 139
3 142 110 196
3 143 23 163
3 144 74 250
3 145 0 134
3 146 9 154
3 147 13 195
3 148 44 210
3 149 26 270
3 150 50 375
3 151 101 384
3 152 12 148
3 153 129 365
3 154 7 168
3 155 20 261
3 156 53 198
3 157 111 364
3 158 27 229
3 159 105 293
3 160 127 222
3 161 14 158
3 162 34 243
3 163 23 189
3 164 118 131
3 165 26 149
3 166 51 164
3 167 17 170
3 168 14 154
3 169 17 147
3 170 17 169
3 171 38 231
3 172 99 200
3 173 124 130
3 174 22 194
3 175 118 263
3 176 25 207
3 177 32 197
3 178 25 183
3 179 30 177
3 180 12 152
3 181 15 139
3 182 114 324
3 183 28 339
3 184 84 261
3 185 21 193
3 186 76 259
3 187 29 145
3 188 115 203
3 189 60 195
3 190 94 209
3 191 60 189
3 192 28 170
3 193 40 230
3 194 26 174
3 195 13 189
3 196 110 254
3 197 32 224
3 198 16 156
3 199 55 229
3 200 61 209
3 201 98 354
3 202 68 364
3 203 33 188
3 204 110 142
3 205 7 137
3 206 35 362
3 207 66 191
3 208 52 230
3 209 61 248
3 210 58 218
3 211 84 173
3 212 73 366
3 213 73 368
3 214 46 269
3 215 24 230
3 216 46 214
3 217 99 287
3 218 58 247
3 219 67 267
3 220 53 266
3 221 52 327
3 222 74 160
3 223 79 282
3 224 32 238
3 225 54 281
3 226 67 219
3 227 49 212
3 228 44 239
3 229 55 244
3 230 52 193
3 231 38 135
3 232 93 258
3 233 6 299
3 234 66 288
3 235 70 264
3 236 66 234
3 237 103 213
3 238 10 288
3 239 81 228
3 240 88 235
3 241 108 322
3 242 56 260
3 243 97 286
3 244 67 266
3 245 75 274
3 246 60 257
3 247 80 268
3 248 116 263
3 249 8 360
3 250 49 227
3 251 124 184
3 252 7 205
3 253 91 202
3 254 65 196
3 255 79 198
3 256 119 260
3 257 48 246
3 258 129 232
3 259 76 365
3 260 61 242
3 261 84 280
3 262 68 202
3 263 118 353
3 264 67 246
3 265 76 382
3 266 67 264
3 267 67 297
3 268 41 247
3 269 89 289
3 270 26 340
3 271 122 201
3 272 50 378
3 273 105 292
3 274 88 240
3 275 91 253
3 276 99 295
3 277 64 309
3 278 36 282
3 279 121 289
3 280 84 211
3 281 71 360
3 282 36 223
3 283 78 356
3 284 77 308
3 285 5 363
3 286 95 243
3 287 73 213
3 288 10 296
3 289 121 309
3 290 10 238
3 291 57 305
3 292 58 273
3 293 105 355
3 294 64 239
3 295 62 276
3 296 126 288
3 297 122 267
3 298 92 307
3 299 75 245
3 300 126 309
3 301 73 316
3 302 82 350
3 303 55 350
3 304 125 275
3 305 57 320
3 306 122 297
3 307 75 298
3 308 128 284
3 309 121 300
3 310 108 347
3 311 75 299
3 312 97 335
3 313 112 328
3 314 85 341
3 315 86 361
3 316 8 301
3 317 125 304
3 318 5 377
3 319 105 279
3 320 57 337
3 321 59 369
3 322 108 317
3 323 90 364
3 324 119 256
3 325 69 334
3 326 86 372
3 327 42 221
3 328 112 370
3 329 42 321
3 330 50 150
3 331 123 379
3 332 89 269
3 333 113 151
3 334 77 325
3 335 108 241
3 336 102 351
3 337 87 320
3 338 11 152
3 339 38 183
3 340 45 270
3 341 78 359
3 342 87 343
3 343 87 344
3 344 87 337
3 345 65 384
3 346 92 298
3 347 34 310
3 348 92 371
3 349 104 357
3 350 55 278
3 351 120 381
3 352 22 293
3 353 51 142
3 354 59 201
3 355 10 293
3 356 78 258
3 357 88 349
3 358 107 365
3 359 123 331
3 360 49 281
3 361 86 367
3 362 106 157
3 363 116 285
3 364 90 157
3 365 76 153
3 366 73 172
3 367 86 326
3 368 98 337
3 369 127 321
3 370 107 328
3 371 119 383
3 372 86 378
3 373 93 188
3 374 129 258
3 375 50 272
3 376 71 281
3 377 5 285
3 378 117 272
3 379 123 256
3 380 115 188
3 381 120 331
3 382 33 265
3 383 119 324
3 384 65 254
3 385 30 171
3 130 124 206
3 130 90 323
3 131 118 175
3 131 96 140
3 132 0 136
3 132 9 138
3 133 1 138
3 133 2 156
3 134 0 132
3 134 1 133
3 135 42 290
3 135 32 231
3 136 29 137
3 136 9 132
3 137 7 154
3 137 9 136
3 138 9 146
3 138 2 133
3 139 17 181
3 139 15 143
3 140 96 175
3 140 116 166
3 141 3 163
3 141 13 147
3 142 100 353
3 142 51 204
3 143 3 139
3 143 15 176
3 144 4 194
3 144 22 160
3 145 16 187
3 145 29 136
3 146 14 161
3 146 2 138
3 147 19 169
3 147 17 141
3 148 18 152
3 148 12 180
3 149 94 190
3 149 65 165
3 150 110 363
3 150 5 330
3 151 39 333
3 151 113 361
3 152 18 338
3 152 11 180
3 153 76 265
3 153 69 325
3 154 14 146
3 154 9 137
3 155 39 272
3 155 117 241
3 156 16 133
3 156 2 161
3 157 90 362
3 157 106 253
3 158 53 161
3 158 14 168
3 159 22 300
3 159 121 279
3 160 74 144
3 160 22 352
3 161 53 156
3 161 2 146
3 162 95 211
3 162 125 310
3 163 13 141
3 163 3 143
3 164 47 166
3 164 51 353
3 165 65 345
3 165 6 174
3 166 47 140
3 166 116 204
3 167 28 183
3 167 25 181
3 168 7 199
3 168 27 158
3 169 19 219
3 169 24 170
3 170 24 192
3 170 28 167
3 171 37 385
3 171 30 179
3 172 94 366
3 172 73 287
3 173 125 211
3 173 84 184
3 174 26 165
3 174 6 233
3 175 116 140
3 175 96 131
3 176 23 143
3 176 15 181
3 177 31 179
3 177 30 385
3 178 38 179
3 178 31 197
3 179 31 178
3 179 38 171
3 180 11 294
3 180 44 148
3 181 17 167
3 181 25 176
3 182 123 283
3 182 43 186
3 183 38 178
3 183 25 167
3 184 20 251
3 184 124 173
3 185 52 339
3 185 28 192
3 186 114 182
3 186 43 382
3 187 16 223
3 187 36 205
3 188 33 373
3 188 93 380
3 189 13 163
3 189 23 191
3 190 100 196
3 190 65 149
3 191 23 207
3 191 66 236
3 192 24 215
3 192 21 185
3 193 52 185
3 193 21 215
3 194 22 144
3 194 4 340
3 195 60 226
3 195 19 147
3 196 65 190
3 196 100 142
3 197 25 178
3 197 31 177
3 198 53 255
3 198 79 223
3 199 27 168
3 199 7 252
3 200 94 172
3 200 99 242
3 201 59 271
3 201 122 306
3 202 111 253
3 202 91 262
3 203 115 334
3 203 69 265
3 204 51 166
3 204 116 363
3 205 29 187
3 205 36 252
3 206 90 130
3 206 124 251
3 207 23 176
3 207 25 224
3 208 24 267
3 208 122 271
3 209 100 190
3 209 94 200
3 210 18 148
3 210 44 228
3 211 125 162
3 211 95 280
3 212 45 227
3 212 49 316
3 213 57 237
3 213 103 287
3 214 64 294
3 214 11 216
3 215 40 193
3 215 21 192
3 216 11 338
3 216 41 332
3 217 103 357
3 217 104 295
3 218 41 338
3 218 18 210
3 219 24 169
3 219 19 226
3 220 70 305
3 220 72 255
3 221 42 135
3 221 38 339
3 222 127 369
3 222 54 225
3 223 36 187
3 223 16 198
3 224 66 207
3 224 25 197
3 225 49 250
3 225 74 222
3 226 19 195
3 226 60 246
3 227 45 340
3 227 4 250
3 228 81 273
3 228 58 210
3 229 53 158
3 229 27 199
3 230 40 215
3 230 24 208
3 231 32 385
3 231 37 171
3 232 129 325
3 232 77 284
3 233 126 300
3 233 22 174
3 234 126 245
3 234 63 236
3 235 48 240
3 235 88 291
3 236 63 257
3 236 60 191
3 237 57 291
3 237 88 357
3 238 66 224
3 238 32 290
3 239 44 294
3 239 64 277
3 240 48 257
3 240 63 274
3 241 20 155
3 241 117 335
3 242 61 200
3 242 99 276
3 243 95 162
3 243 34 347
3 244 53 229
3 244 55 303
3 245 63 234
3 245 126 299
3 246 48 264
3 246 67 226
3 247 41 218
3 247 58 292
3 248 100 209
3 248 61 285
3 249 71 354
3 249 98 301
3 250 4 144
3 250 74 225
3 251 20 322
3 251 35 206
3 252 36 278
3 252 55 199
3 253 111 157
3 253 106 275
3 254 110 375
3 254 39 384
3 255 53 220
3 255 72 342
3 256 56 379
3 256 123 324
3 257 60 236
3 257 63 240
3 258 93 356
3 258 78 374
3 259 107 370
3 259 114 186
3 260 56 256
3 260 119 377
3 261 39 155
3 261 20 184
3 262 91 275
3 262 125 323
3 263 100 248
3 263 116 175
3 264 48 235
3 264 70 266
3 265 33 203
3 265 69 153
3 266 70 220
3 266 53 244
3 267 122 208
3 267 24 219
3 268 80 319
3 268 89 332
3 269 64 214
3 269 46 332
3 270 45 366
3 270 94 149
3 271 59 327
3 271 52 208
3 272 117 155
3 272 39 375
3 273 58 228
3 273 81 355
3 274 63 245
3 274 75 307
3 275 106 304
3 275 125 262
3 276 62 379
3 276 56 242
3 277 126 296
3 277 81 239
3 278 83 350
3 278 55 252
3 279 89 319
3 279 105 159
3 280 95 333
3 280 39 261
3 281 49 225
3 281 54 376
3 282 79 343
3 282 83 278
3 283 43 182
3 283 123 359
3 284 128 380
3 284 93 232
3 285 116 248
3 285 61 377
3 286 97 315
3 286 113 333
3 287 103 217
3 287 99 172
3 288 126 234
3 288 66 238
3 289 64 269
3 289 89 279
3 290 32 135
3 290 42 329
3 291 70 235
3 291 88 237
3 292 105 319
3 292 80 247
3 293 10 352
3 293 22 159
3 294 44 180
3 294 11 214
3 295 99 217
3 295 104 381
3 296 10 355
3 296 81 277
3 297 67 303
3 297 82 306
3 298 75 326
3 298 109 346
3 299 126 233
3 299 6 311
3 300 121 159
3 300 22 233
3 301 8 249
3 301 98 368
3 302 83 344
3 302 98 306
3 303 82 297
3 303 67 244
3 304 106 362
3 304 35 317
3 305 72 220
3 305 70 291
3 306 82 302
3 306 98 201
3 307 92 349
3 307 88 274
3 308 77 334
3 308 115 380
3 309 126 277
3 309 64 289
3 310 34 162
3 310 125 317
3 311 6 345
3 311 101 367
3 312 117 378
3 312 86 315
3 313 85 314
3 313 102 348
3 314 120 351
3 314 102 313
3 315 113 286
3 315 97 312
3 316 73 212
3 316 49 360
3 317 35 322
3 317 108 310
3 318 119 371
3 318 92 346
3 319 89 268
3 319 80 292
3 320 87 342
3 320 72 305
3 321 127 329
3 321 42 327
3 322 35 251
3 322 20 241
3 323 68 262
3 323 125 130
3 324 123 182
3 324 114 383
3 325 77 232
3 325 129 153
3 326 109 298
3 326 75 367
3 327 52 271
3 327 59 321
3 328 107 358
3 328 85 313
3 329 127 352
3 329 10 290
3 330 5 346
3 330 109 372
3 331 62 381
3 331 120 359
3 332 46 216
3 332 41 268
3 333 39 280
3 333 95 286
3 334 69 203
3 334 115 308
3 335 117 312
3 335 97 347
3 336 104 349
3 336 92 348
3 337 57 368
3 337 98 344
3 338 18 218
3 338 41 216
3 339 28 185
3 339 52 221
3 340 26 194
3 340 4 227
3 341 120 314
3 341 85 374
3 342 79 255
3 342 72 320
3 343 83 282
3 343 79 342
3 344 98 302
3 344 83 343
3 345 101 311
3 345 6 165
3 346 109 330
3 346 5 318
3 347 108 335
3 347 97 243
3 348 112 313
3 348 102 336
3 349 88 307
3 349 92 336
3 350 83 302
3 350 82 303
3 351 104 336
3 351 102 314
3 352 10 329
3 352 127 160
3 353 100 263
3 353 118 164
3 354 98 249
3 354 71 376
3 355 105 273
3 355 81 296
3 356 93 373
3 356 43 283
3 357 104 217
3 357 103 237
3 358 129 374
3 358 85 328
3 359 120 341
3 359 78 283
3 360 71 249
3 360 8 316
3 361 101 151
3 361 113 315
3 362 90 206
3 362 35 304
3 363 5 150
3 363 110 204
3 364 111 202
3 364 68 323
3 365 129 358
3 365 107 259
3 366 94 270
3 366 45 212
3 367 75 311
3 367 101 361
3 368 57 213
3 368 73 301
3 369 59 376
3 369 54 222
3 370 112 383
3 370 114 259
3 371 112 348
3 371 92 318
3 372 50 330
3 372 109 326
3 373 33 382
3 373 43 356
3 374 78 341
3 374 85 358
3 375 39 254
3 375 110 150
3 376 54 369
3 376 59 354
3 377 61 260
3 377 119 318
3 378 50 372
3 378 86 312
3 379 56 276
3 379 62 331
3 380 93 284
3 380 128 308
3 381 62 295
3 381 104 351
3 382 76 186
3 382 43 373
3 383 114 370
3 383 112 371
3 384 39 151
3 384 101 345
3 385 37 231
3 385 32 177
